<svg xmlns="http://www.w3.org/2000/svg" width="430" height="764" viewBox="0 0 430 764"><defs><radialGradient id="bg1" cx="28%" cy="12%" r="35%"><stop stop-color="#ff4b16" stop-opacity=".34"/><stop offset="1" stop-color="#000" stop-opacity="0"/></radialGradient><radialGradient id="bg2" cx="74%" cy="13%" r="35%"><stop stop-color="#009bff" stop-opacity=".42"/><stop offset="1" stop-color="#000" stop-opacity="0"/></radialGradient><linearGradient id="card" x1="0" x2="1"><stop stop-color="#07111b"/><stop offset="1" stop-color="#02070d"/></linearGradient><filter id="glow"><feGaussianBlur stdDeviation="4" result="b"/><feMerge><feMergeNode in="b"/><feMergeNode in="SourceGraphic"/></feMerge></filter></defs><rect width="430" height="764" fill="#02060b"/><rect width="430" height="290" fill="url(#bg1)"/><rect width="430" height="290" fill="url(#bg2)"/><g opacity=".20" stroke="#fff"><path d="M0 38h430M0 76h430M0 114h430M0 152h430M0 190h430M0 228h430M0 266h430M38 0v290M76 0v290M114 0v290M152 0v290M190 0v290M228 0v290M266 0v290M304 0v290M342 0v290M380 0v290"/></g><text x="25" y="28" fill="#fff" font-family="Arial" font-size="18" font-weight="700">9:41</text><text x="340" y="28" fill="#fff" font-family="Arial" font-size="15">▮▮ ))) ▭</text><path d="M135 72a82 82 0 0 0 0 126" fill="none" stroke="#ff4b16" stroke-width="5" filter="url(#glow)"/><path d="M295 72a82 82 0 0 1 0 126" fill="none" stroke="#009bff" stroke-width="5" filter="url(#glow)"/><circle cx="215" cy="142" r="74" fill="#fff"/><text x="202" y="135" fill="#ff4b16" font-family="Arial Black,Arial" font-size="48" font-weight="900" text-anchor="end">T</text><text x="202" y="135" fill="#111" font-family="Arial Black,Arial" font-size="48" font-weight="900">P</text><text x="215" y="166" fill="#111" font-family="Arial Black,Arial" font-size="18" text-anchor="middle">PRO <tspan fill="#ff4b16">TRADES</tspan></text><text x="215" y="186" fill="#111" font-family="Arial Black,Arial" font-size="18" text-anchor="middle">ACADEMY™</text><text x="215" y="238" fill="#fff" font-family="Arial Black,Arial" font-size="29" text-anchor="middle" letter-spacing="2">HVAC <tspan fill="#ff4b16">DIAGNOSTIC</tspan> OS</text><text x="215" y="263" fill="#b7bec9" font-family="Arial" font-size="13" text-anchor="middle" letter-spacing="2">FIELD INTELLIGENCE. ACCA PRECISION.</text><rect x="120" y="276" width="190" height="7" rx="4" fill="#1d2730"/><rect x="120" y="276" width="94" height="7" rx="4" fill="#ff4b16"/><rect x="205" y="276" width="34" height="7" rx="4" fill="#fff"/><text x="215" y="304" fill="#9aa5b4" font-family="Arial" font-size="13" text-anchor="middle">Initializing Field Intelligence...</text><rect x="0" y="324" width="430" height="78" fill="#07111b" stroke="#233041"/><text x="18" y="373" fill="#fff" font-family="Arial" font-size="34">☰</text><text x="74" y="373" fill="#ff4b16" font-family="Arial Black" font-size="36" letter-spacing="-6">T<tspan fill="#fff">P</tspan></text><text x="120" y="358" fill="#fff" font-family="Arial" font-size="22" font-weight="700">Pro Trades Academy</text><text x="120" y="382" fill="#009bff" font-family="Arial" font-size="16" font-weight="700">HVAC Diagnostic OS</text><text x="350" y="372" fill="#fff" font-family="Arial" font-size="25">♧</text><circle cx="368" cy="347" r="5" fill="#ff4b16"/><circle cx="402" cy="363" r="22" fill="none" stroke="#009bff" stroke-width="2"/><circle cx="402" cy="363" r="6" fill="#009bff"/><rect x="10" y="414" width="410" height="196" rx="19" fill="url(#card)" stroke="#29445f"/><text x="28" y="456" fill="#fff" font-family="Arial Black,Arial" font-size="26">HVAC Specialist Core</text><text x="28" y="490" fill="#d0d4db" font-family="Arial" font-size="15">Automated ACCA Manual J thermal loads,</text><text x="28" y="512" fill="#d0d4db" font-family="Arial" font-size="15">Manual S equipment parsing, and Manual D</text><text x="28" y="534" fill="#d0d4db" font-family="Arial" font-size="15">air distribution layouts from the field.</text><rect x="28" y="555" width="188" height="42" rx="12" fill="#ff4b16"/><text x="122" y="582" fill="#fff" font-family="Arial" font-size="16" font-weight="900" text-anchor="middle">🎙 Initiate Spatial Scan</text><path d="M265 558h90v-62l-45-36-45 36z" fill="none" stroke="#009bff" stroke-width="2" filter="url(#glow)"/><path d="M250 528h125" stroke="#ff4b16" stroke-width="6" stroke-linecap="round" filter="url(#glow)"/><path d="M285 490h78" stroke="#009bff" stroke-width="6" stroke-linecap="round" filter="url(#glow)"/><text x="24" y="638" fill="#fff" font-family="Arial" font-size="17" font-weight="800">TODAY’S SNAPSHOT</text><text x="315" y="638" fill="#a7aebb" font-family="Arial" font-size="13">Updated: 9:41 AM</text><g font-family="Arial" text-anchor="middle"><rect x="10" y="650" width="96" height="82" rx="13" fill="#07111b" stroke="#2b3a49"/><text x="58" y="676" fill="#009bff" font-size="12">Space Volume</text><text x="58" y="705" fill="#fff" font-size="23" font-weight="900">11,264</text><text x="58" y="723" fill="#009bff" font-size="12">cu. ft.</text><rect x="112" y="650" width="96" height="82" rx="13" fill="#07111b" stroke="#2b3a49"/><text x="160" y="676" fill="#ff4b16" font-size="12">Manual J Load</text><text x="160" y="705" fill="#fff" font-size="23" font-weight="900">34,200</text><text x="160" y="723" fill="#ff4b16" font-size="12">BTU/h</text><rect x="214" y="650" width="96" height="82" rx="13" fill="#07111b" stroke="#2b3a49"/><text x="262" y="676" fill="#009bff" font-size="12">System Sizing</text><text x="262" y="705" fill="#fff" font-size="23" font-weight="900">2.5</text><text x="262" y="723" fill="#009bff" font-size="12">Tons Needed</text><rect x="316" y="650" width="104" height="82" rx="13" fill="#07111b" stroke="#2b3a49"/><text x="368" y="676" fill="#ff4b16" font-size="12">Duct Layout</text><text x="368" y="705" fill="#fff" font-size="22" font-weight="900">12-Inch</text><text x="368" y="723" fill="#ff4b16" font-size="12">Trunk</text></g><rect x="0" y="736" width="430" height="28" fill="#06101a"/><text x="43" y="756" fill="#ff4b16" font-family="Arial" font-size="12" text-anchor="middle">⌂ Home</text><text x="129" y="756" fill="#a9b0bc" font-family="Arial" font-size="12" text-anchor="middle">◎ Scan</text><text x="215" y="756" fill="#a9b0bc" font-family="Arial" font-size="12" text-anchor="middle">Tools</text><text x="301" y="756" fill="#a9b0bc" font-family="Arial" font-size="12" text-anchor="middle">Report</text><text x="387" y="756" fill="#a9b0bc" font-family="Arial" font-size="12" text-anchor="middle">Present</text></svg>